<svg width="40" height="34" viewBox="0 0 40 34" fill="none" xmlns="http://www.w3.org/2000/svg">
<g opacity="0.1" style="mix-blend-mode:multiply">
<path d="M33.1606 19.5015L34.1681 5.49983C34.2106 4.91112 33.7978 4.38917 33.2152 4.29207C31.2791 3.97647 26.6847 3.35742 20.1178 3.35742C13.5509 3.35742 8.11901 3.84294 6.17686 4.06143C5.67312 4.11606 5.26647 4.49841 5.1815 5.00215C4.82949 7.09603 3.83413 12.6372 3.95551 18.6154C4.07689 24.5875 4.28934 28.8238 4.435 31.3668C4.47142 32.0041 5.02373 32.4896 5.66099 32.435C8.30717 32.2226 14.8801 31.7249 18.8615 31.6339C22.8004 31.5428 29.3248 31.8524 32.0438 31.992C32.7175 32.0284 33.2698 31.4761 33.2455 30.8024L33.0271 25.5404C33.0271 25.5404 37.2027 24.5268 38.022 24.2112C38.8413 23.8956 39.3876 23.7803 39.3876 23.1977C39.3876 22.615 38.0888 21.2069 33.1606 19.4894V19.5015Z" fill="black"/>
</g>
<path d="M29.829 16.7457L30.8365 2.74401C30.879 2.1553 30.4663 1.63335 29.8836 1.53624C27.9475 1.22065 23.3532 0.601562 16.7863 0.601562C10.2194 0.601562 4.78747 1.08712 2.84532 1.30561C2.34158 1.36023 1.93493 1.74259 1.84996 2.24633C1.49795 4.34021 0.502583 9.8814 0.623967 15.8596C0.745352 21.8317 0.957798 26.068 1.10346 28.611C1.13987 29.2483 1.69211 29.7338 2.32938 29.6792C4.97555 29.4668 11.5485 28.9691 15.5299 28.878C19.4688 28.787 25.9933 29.0965 28.7123 29.2361C29.386 29.2725 29.9383 28.7202 29.914 28.0466L29.6955 22.7845C29.6955 22.7845 33.8711 21.771 34.6905 21.4554C35.5098 21.1459 36.056 21.0245 36.056 20.4418C36.056 19.8592 34.7572 18.4511 29.829 16.7335V16.7457Z" fill="white"/>
<path d="M13.2959 18.185C13.2413 15.8301 13.4173 12.4981 13.5265 10.738C13.569 10.0947 13.041 9.55456 12.3977 9.57277L6.65014 9.73661C6.61979 8.82016 6.91718 6.75057 7.02643 6.02833C7.1296 5.67025 7.11745 5.26361 6.40736 4.69917C5.60015 4.3775 4.83538 4.96623 4.83538 5.73095C4.83538 5.73095 4.10103 12.5649 3.9493 16.6738C3.83398 19.7084 4.05246 23.1314 4.08888 25.0493C4.10101 25.6562 4.59267 26.1356 5.19959 26.1356H12.6951C13.1867 26.1356 13.5811 25.729 13.5568 25.2374C13.484 23.7322 13.3505 20.6248 13.2898 18.1911L13.2959 18.185ZM11.1717 23.6837H6.20095C6.20095 23.6837 6.12205 20.4488 6.20095 17.9058C6.27985 15.3628 6.43766 12.1279 6.43766 12.1279H11.1717C11.1717 12.1279 10.8561 20.3699 11.1717 23.6837Z" fill="#664AFF"/>
<path d="M27.0485 5.72414C27.0485 5.10508 26.5447 4.60742 25.9317 4.60742C25.3187 4.60742 24.815 5.11115 24.815 5.72414C24.815 5.72414 24.4752 7.90906 24.3052 9.6752H17.623C16.9736 9.6752 16.4455 10.1971 16.4395 10.8466L16.2696 24.9393C16.2635 25.5948 16.7915 26.1288 17.447 26.1288H24.7422C25.3916 26.1288 25.9075 25.6008 25.8953 24.9514C25.8468 22.8272 25.78 18.3056 25.9256 15.3985C26.0956 12.03 26.8118 7.27786 27.006 6.03367C27.0303 5.9487 27.0485 5.85766 27.0485 5.76663C27.0728 5.74235 27.0485 5.72414 27.0485 5.72414ZM23.7529 23.683H18.8247V12.1271H23.9532C23.9532 12.1271 23.7104 17.7291 23.759 23.683H23.7529Z" fill="#664AFF"/>
<path d="M16.7792 0.606921C23.3521 0.606921 27.9465 1.2199 29.8826 1.54764C30.4652 1.64475 30.8841 2.16063 30.8355 2.75541L30.7505 3.96321C31.8066 4.09067 32.6319 4.21812 33.2146 4.30916C33.7972 4.40627 34.21 4.92215 34.1675 5.51693L33.251 18.1591C35.4056 19.2151 36.055 20.0527 36.055 20.4714C36.055 20.5443 36.0489 20.605 36.0307 20.6596C38.6162 21.8431 39.3809 22.7717 39.3809 23.2208C39.3809 23.8095 38.8347 23.9309 38.0154 24.2404C37.196 24.556 33.0265 25.5635 33.0265 25.5635L33.245 30.8316C33.2692 31.481 32.7473 32.0212 32.0918 32.0212C32.0736 32.0212 32.0554 32.0212 32.0372 32.0212C29.6702 31.8937 24.4143 31.6388 20.4935 31.6388C19.9109 31.6388 19.3586 31.6388 18.8488 31.657C14.8674 31.742 8.29445 32.2457 5.64828 32.4581C5.61793 32.4581 5.58758 32.4581 5.5633 32.4581C4.96245 32.4581 4.45871 31.9908 4.42836 31.3839C4.39801 30.8498 4.3555 30.2307 4.32516 29.5449C3.53616 29.5995 2.85038 29.6542 2.32236 29.6966C2.29202 29.6966 2.26166 29.6966 2.23738 29.6966C1.63653 29.6966 1.13278 29.2293 1.09637 28.6224C0.944639 26.0734 0.732192 21.8431 0.616877 15.871C0.501562 9.8989 1.48478 4.34557 1.83679 2.25777C1.92176 1.75402 2.33449 1.3777 2.83823 1.31701C4.77431 1.09852 9.89063 0.606921 16.7731 0.606921M16.7792 0C9.79353 0 4.659 0.497671 2.77148 0.716163C2.00069 0.801132 1.36948 1.38984 1.24202 2.15456L1.20557 2.37308C0.811074 4.66724 -0.105359 10.0445 0.00995614 15.8831C0.100994 20.4714 0.264887 24.7685 0.489448 28.6588C0.54407 29.5814 1.31486 30.3036 2.23738 30.3036C2.27987 30.3036 2.32233 30.3036 2.37089 30.3036L2.92321 30.2611C3.17811 30.2429 3.4573 30.2186 3.75469 30.2004C3.77289 30.5099 3.79107 30.8013 3.80321 31.0804L3.82144 31.4264C3.86392 32.3489 4.63471 33.0711 5.5633 33.0711C5.60578 33.0711 5.64825 33.0711 5.6968 33.0711C8.34298 32.8587 14.922 32.355 18.867 32.27C19.3707 32.2579 19.923 32.2518 20.4996 32.2518C24.8998 32.2518 30.8597 32.5674 32.0129 32.6342C32.0432 32.6342 32.0736 32.6342 32.104 32.6342C32.5834 32.6342 33.0325 32.446 33.3724 32.094C33.7062 31.7481 33.8822 31.2929 33.864 30.8134L33.6637 26.043C34.8229 25.7578 37.5541 25.078 38.246 24.8109C38.337 24.7745 38.4281 24.7442 38.5131 24.7139C39.211 24.4589 40 24.1737 40 23.2269C40 22.1344 38.2581 21.048 36.6559 20.2833C36.4859 19.3608 35.1507 18.4626 33.8943 17.8071L34.7805 5.56546C34.8412 4.65508 34.21 3.86002 33.3178 3.71435C32.6745 3.61118 32.0432 3.52016 31.3999 3.43519L31.4424 2.80397C31.5153 1.89966 30.884 1.1046 29.9797 0.952871C28.2803 0.667618 23.5949 0.00607514 16.7792 0.00607514V0Z" fill="#C8C8C8"/>
</svg>
